<?xml version="1.0" encoding="UTF-8"?>
<svg id="Layer_2" xmlns="http://www.w3.org/2000/svg" xmlns:xlink="http://www.w3.org/1999/xlink" viewBox="0 0 859.88 859.88">
  <defs>
    <style>
      .cls-1 {
        fill: #fff;
      }

      .cls-2 {
        fill: url(#linear-gradient);
      }
    </style>
    <linearGradient id="linear-gradient" x1="40.61" y1="843.01" x2="833.53" y2="1.74" gradientUnits="userSpaceOnUse">
      <stop offset="0" stop-color="#83087e"/>
      <stop offset="1" stop-color="#fb5d26"/>
    </linearGradient>
  </defs>
  <g id="Layer_1-2" data-name="Layer_1">
    <g>
      <rect class="cls-2" width="859.88" height="859.88" rx="139.52" ry="139.52"/>
      <path class="cls-1" d="M616.66,699.19l-62.74-58.26c-47.8,37.34-107.55,58.26-174.77,58.26-115.02,0-199.42-59.75-199.42-143.4,0-65.73,35.1-111.28,115.02-156.1-38.09-39.58-53.78-73.19-53.78-110.54,0-76.18,64.23-128.46,162.82-128.46,90.37,0,150.12,46.31,150.12,120.25,0,53.78-31.37,93.36-102.32,132.2l95.6,88.88c11.2-23.15,20.16-50.79,26.14-81.41l93.36,29.13c-9.71,44.81-25.39,85.14-47.8,118.75l61.24,56.76-63.48,73.94ZM485.21,577.45l-126.22-118.01c-47.8,27.63-64.98,51.53-64.98,83.65,0,38.09,35.85,64.98,93.36,64.98,35.85,0,69.46-10.46,97.84-30.62ZM347.04,287.66c0,20.17,8.22,35.1,40.33,66.47,51.53-27.63,67.97-47.05,67.97-70.95,0-25.39-17.93-43.32-51.53-43.32-35.85,0-56.76,20.17-56.76,47.8Z"/>
    </g>
  </g>
</svg>