<?xml version="1.0" encoding="UTF-8"?>
<svg id="Layer_2" xmlns="http://www.w3.org/2000/svg" xmlns:xlink="http://www.w3.org/1999/xlink" viewBox="0 0 702.67 486.17">
  <defs>
    <style>
      .cls-1 {
        fill: url(#linear-gradient);
      }
    </style>
    <linearGradient id="linear-gradient" x1="-45.73" y1="476.35" x2="689.24" y2="27.89" gradientUnits="userSpaceOnUse">
      <stop offset="0" stop-color="#83087e"/>
      <stop offset="1" stop-color="#fb5d26"/>
    </linearGradient>
  </defs>
  <g id="Layer_1-2" data-name="Layer_1">
    <g>
      <g>
        <g>
          <path d="M169.54,116.52c0,47.44-32.62,76.28-71.16,76.28-16.17,0-28.57-4.04-37.47-12.67v62.27H0V42.67h57.95v12.13c8.9-9.97,22.1-14.82,40.43-14.82,38.54,0,71.16,29.11,71.16,76.55ZM107.82,116.52c0-19.14-10.51-29.11-23.99-29.11s-23.99,9.97-23.99,29.11,10.51,28.84,23.99,28.84,23.99-9.7,23.99-28.84Z"/>
          <path d="M349.87,42.67v147.44h-57.95v-14.02c-11.05,11.32-25.88,16.71-41.78,16.71-35.31,0-62-20.75-62-68.73V42.67h60.92v70.89c0,21.02,7.28,28.03,19.14,28.03,10.51,0,20.75-7.82,20.75-29.65V42.67h60.92Z"/>
          <path d="M485.44,184.99c-9.43,5.39-23.18,7.82-37.47,7.82-40.7,0-64.42-19.14-64.42-59.84v-37.74h-20.22v-44.48h20.22V9.51h60.92v41.24h30.19v44.48h-30.19v37.2c0,9.16,5.39,14.29,12.67,14.29,4.85,0,9.7-1.35,13.75-4.04l14.56,42.32Z"/>
        </g>
        <path d="M679.76,194.34l-22.64-21.02c-17.25,13.48-38.81,21.02-63.07,21.02-41.51,0-71.97-21.56-71.97-51.75,0-23.72,12.67-40.16,41.51-56.33-13.75-14.29-19.41-26.42-19.41-39.89,0-27.49,23.18-46.36,58.76-46.36,32.62,0,54.18,16.71,54.18,43.4,0,19.41-11.32,33.69-36.93,47.71l34.5,32.08c4.04-8.36,7.28-18.33,9.43-29.38l33.69,10.51c-3.5,16.17-9.16,30.73-17.25,42.86l22.1,20.49-22.91,26.69ZM632.32,150.41l-45.55-42.59c-17.25,9.97-23.45,18.6-23.45,30.19,0,13.75,12.94,23.45,33.69,23.45,12.94,0,25.07-3.77,35.31-11.05ZM582.46,45.82c0,7.28,2.96,12.67,14.55,23.99,18.6-9.97,24.53-16.98,24.53-25.61,0-9.16-6.47-15.63-18.6-15.63-12.94,0-20.48,7.28-20.48,17.25Z"/>
        <g>
          <path d="M169.54,360.29c0,47.44-32.62,76.28-71.16,76.28-16.17,0-28.57-4.04-37.47-12.67v62.27H0v-199.73h57.95v12.13c8.9-9.97,22.1-14.83,40.43-14.83,38.54,0,71.16,29.11,71.16,76.55ZM107.82,360.29c0-19.14-10.51-29.11-23.99-29.11s-23.99,9.97-23.99,29.11,10.51,28.84,23.99,28.84,23.99-9.7,23.99-28.84Z"/>
          <path d="M294.34,283.74v53.91c-5.39-.81-9.16-1.08-13.48-1.08-18.33,0-31.27,8.36-31.27,31.81v65.5h-60.92v-147.44h57.95v15.9c10.78-12.4,27.22-18.6,47.71-18.6Z"/>
          <path d="M305.39,243.58c0-17.52,14.29-31,36.66-31s36.66,12.4,36.66,29.92c0,18.6-14.29,32.08-36.66,32.08s-36.66-13.48-36.66-31ZM311.59,286.44h60.92v147.44h-60.92v-147.44Z"/>
          <path d="M562.26,349.78v84.1h-60.92v-73.59c0-18.33-7.01-25.34-18.06-25.34-12.4,0-22.91,7.82-22.91,29.65v69.27h-60.92v-147.44h57.95v14.56c11.59-11.59,27.22-17.25,44.48-17.25,33.96,0,60.38,19.68,60.38,66.04Z"/>
          <path d="M697.3,428.76c-9.43,5.39-23.18,7.82-37.47,7.82-40.7,0-64.42-19.14-64.42-59.84v-37.74h-20.22v-44.47h20.22v-41.24h60.92v41.24h30.19v44.47h-30.19v37.2c0,9.17,5.39,14.29,12.67,14.29,4.85,0,9.7-1.35,13.75-4.04l14.56,42.32Z"/>
        </g>
      </g>
      <g>
        <g>
          <path class="cls-1" d="M169.54,116.52c0,47.44-32.62,76.28-71.16,76.28-16.17,0-28.57-4.04-37.47-12.67v62.27H0V42.67h57.95v12.13c8.9-9.97,22.1-14.82,40.43-14.82,38.54,0,71.16,29.11,71.16,76.55ZM107.82,116.52c0-19.14-10.51-29.11-23.99-29.11s-23.99,9.97-23.99,29.11,10.51,28.84,23.99,28.84,23.99-9.7,23.99-28.84Z"/>
          <path class="cls-1" d="M349.87,42.67v147.44h-57.95v-14.02c-11.05,11.32-25.88,16.71-41.78,16.71-35.31,0-62-20.75-62-68.73V42.67h60.92v70.89c0,21.02,7.28,28.03,19.14,28.03,10.51,0,20.75-7.82,20.75-29.65V42.67h60.92Z"/>
          <path class="cls-1" d="M485.44,184.99c-9.43,5.39-23.18,7.82-37.47,7.82-40.7,0-64.42-19.14-64.42-59.84v-37.74h-20.22v-44.48h20.22V9.51h60.92v41.24h30.19v44.48h-30.19v37.2c0,9.16,5.39,14.29,12.67,14.29,4.85,0,9.7-1.35,13.75-4.04l14.56,42.32Z"/>
        </g>
        <path class="cls-1" d="M679.76,194.34l-22.64-21.02c-17.25,13.48-38.81,21.02-63.07,21.02-41.51,0-71.97-21.56-71.97-51.75,0-23.72,12.67-40.16,41.51-56.33-13.75-14.29-19.41-26.42-19.41-39.89,0-27.49,23.18-46.36,58.76-46.36,32.62,0,54.18,16.71,54.18,43.4,0,19.41-11.32,33.69-36.93,47.71l34.5,32.08c4.04-8.36,7.28-18.33,9.43-29.38l33.69,10.51c-3.5,16.17-9.16,30.73-17.25,42.86l22.1,20.49-22.91,26.69ZM632.32,150.41l-45.55-42.59c-17.25,9.97-23.45,18.6-23.45,30.19,0,13.75,12.94,23.45,33.69,23.45,12.94,0,25.07-3.77,35.31-11.05ZM582.46,45.82c0,7.28,2.96,12.67,14.55,23.99,18.6-9.97,24.53-16.98,24.53-25.61,0-9.16-6.47-15.63-18.6-15.63-12.94,0-20.48,7.28-20.48,17.25Z"/>
        <g>
          <path class="cls-1" d="M169.54,360.29c0,47.44-32.62,76.28-71.16,76.28-16.17,0-28.57-4.04-37.47-12.67v62.27H0v-199.73h57.95v12.13c8.9-9.97,22.1-14.83,40.43-14.83,38.54,0,71.16,29.11,71.16,76.55ZM107.82,360.29c0-19.14-10.51-29.11-23.99-29.11s-23.99,9.97-23.99,29.11,10.51,28.84,23.99,28.84,23.99-9.7,23.99-28.84Z"/>
          <path class="cls-1" d="M294.34,283.74v53.91c-5.39-.81-9.16-1.08-13.48-1.08-18.33,0-31.27,8.36-31.27,31.81v65.5h-60.92v-147.44h57.95v15.9c10.78-12.4,27.22-18.6,47.71-18.6Z"/>
          <path class="cls-1" d="M305.39,243.58c0-17.52,14.29-31,36.66-31s36.66,12.4,36.66,29.92c0,18.6-14.29,32.08-36.66,32.08s-36.66-13.48-36.66-31ZM311.59,286.44h60.92v147.44h-60.92v-147.44Z"/>
          <path class="cls-1" d="M562.26,349.78v84.1h-60.92v-73.59c0-18.33-7.01-25.34-18.06-25.34-12.4,0-22.91,7.82-22.91,29.65v69.27h-60.92v-147.44h57.95v14.56c11.59-11.59,27.22-17.25,44.48-17.25,33.96,0,60.38,19.68,60.38,66.04Z"/>
          <path class="cls-1" d="M697.3,428.76c-9.43,5.39-23.18,7.82-37.47,7.82-40.7,0-64.42-19.14-64.42-59.84v-37.74h-20.22v-44.47h20.22v-41.24h60.92v41.24h30.19v44.47h-30.19v37.2c0,9.17,5.39,14.29,12.67,14.29,4.85,0,9.7-1.35,13.75-4.04l14.56,42.32Z"/>
        </g>
      </g>
    </g>
  </g>
</svg>