<?xml version="1.0" encoding="UTF-8"?>
<svg id="Layer_2" xmlns="http://www.w3.org/2000/svg" viewBox="0 0 859.88 859.88">
  <defs>
    <style>
      .cls-1 {
        fill: #fff;
      }
    </style>
  </defs>
  <g id="Layer_1-2" data-name="Layer_1">
    <g>
      <path class="cls-1" d="M347.03,287.66c0-27.64,20.91-47.8,56.76-47.8,33.61,0,51.54,17.92,51.54,43.32,0,23.9-16.43,43.32-67.97,70.95-32.11-31.37-40.33-46.31-40.33-66.47Z"/>
      <path class="cls-1" d="M358.98,459.44l126.22,118.01c-28.38,20.16-61.99,30.62-97.84,30.62-57.51,0-93.36-26.89-93.36-64.98,0-32.11,17.18-56.01,64.98-83.65Z"/>
      <path class="cls-1" d="M720.36,0H139.51C62.46,0,0,62.46,0,139.52v580.84c0,77.06,62.46,139.52,139.51,139.52h580.85c77.05,0,139.52-62.46,139.52-139.52V139.52C859.88,62.46,797.41,0,720.36,0ZM616.66,699.19l-62.74-58.26c-47.8,37.35-107.55,58.26-174.77,58.26-115.02,0-199.42-59.75-199.42-143.4,0-65.73,35.1-111.29,115.02-156.1-38.09-39.58-53.78-73.19-53.78-110.54,0-76.18,64.24-128.46,162.82-128.46,90.38,0,150.13,46.31,150.13,120.25,0,53.77-31.37,93.36-102.32,132.2l95.6,88.87c11.2-23.15,20.16-50.78,26.14-81.41l93.36,29.13c-9.71,44.81-25.4,85.15-47.8,118.76l61.24,56.76-63.48,73.94Z"/>
    </g>
  </g>
</svg>