<?xml version="1.0" encoding="UTF-8"?>
<svg id="Layer_2" xmlns="http://www.w3.org/2000/svg" viewBox="0 0 999.49 193.86">
  <defs>
    <style>
      .cls-1 {
        fill: #fff;
      }
    </style>
  </defs>
  <g id="Layer_1-2" data-name="Layer_1">
    <g>
      <path class="cls-1" d="M120.14,104.67c0,33.62-23.11,54.05-50.42,54.05-11.46,0-20.25-2.87-26.55-8.98v44.12H0V52.33h41.06v8.59c6.3-7.07,15.66-10.5,28.65-10.5,27.31,0,50.42,20.63,50.42,54.24ZM76.4,104.67c0-13.56-7.45-20.63-17-20.63s-17,7.07-17,20.63,7.45,20.44,17,20.44,17-6.88,17-20.44Z"/>
      <path class="cls-1" d="M247.91,52.33v104.47h-41.06v-9.93c-7.83,8.02-18.33,11.84-29.6,11.84-25.02,0-43.93-14.71-43.93-48.7v-57.68h43.16v50.23c0,14.9,5.16,19.86,13.56,19.86,7.45,0,14.71-5.54,14.71-21.01v-49.08h43.17Z"/>
      <path class="cls-1" d="M343.99,153.18c-6.68,3.82-16.43,5.54-26.55,5.54-28.84,0-45.65-13.56-45.65-42.4v-26.74h-14.32v-31.51h14.32v-29.22h43.17v29.22h21.39v31.51h-21.39v26.36c0,6.49,3.82,10.12,8.98,10.12,3.44,0,6.88-.96,9.74-2.87l10.31,29.99Z"/>
      <path class="cls-1" d="M471.57,159.1l-16.04-14.9c-12.22,9.55-27.5,14.9-44.69,14.9-29.41,0-51-15.28-51-36.67,0-16.81,8.98-28.46,29.41-39.92-9.74-10.12-13.75-18.72-13.75-28.27,0-19.48,16.43-32.85,41.64-32.85,23.11,0,38.39,11.84,38.39,30.75,0,13.75-8.02,23.87-26.17,33.81l24.45,22.73c2.87-5.92,5.16-12.99,6.68-20.82l23.88,7.45c-2.48,11.46-6.49,21.77-12.22,30.37l15.66,14.52-16.23,18.91ZM437.96,127.97l-32.28-30.18c-12.22,7.07-16.62,13.18-16.62,21.39,0,9.74,9.17,16.62,23.88,16.62,9.17,0,17.76-2.67,25.02-7.83ZM402.62,53.86c0,5.16,2.1,8.98,10.31,17,13.18-7.07,17.38-12.03,17.38-18.14,0-6.49-4.58-11.08-13.18-11.08-9.17,0-14.52,5.16-14.52,12.22Z"/>
      <path class="cls-1" d="M625.52,104.67c0,33.62-23.11,54.05-50.42,54.05-11.46,0-20.25-2.87-26.55-8.98v44.12h-43.17V52.33h41.06v8.59c6.3-7.07,15.66-10.5,28.65-10.5,27.31,0,50.42,20.63,50.42,54.24ZM581.78,104.67c0-13.56-7.45-20.63-17-20.63s-17,7.07-17,20.63,7.45,20.44,17,20.44,17-6.88,17-20.44Z"/>
      <path class="cls-1" d="M713.95,50.42v38.2c-3.82-.57-6.49-.76-9.55-.76-12.99,0-22.16,5.92-22.16,22.54v46.41h-43.17V52.33h41.06v11.27c7.64-8.79,19.29-13.18,33.81-13.18Z"/>
      <path class="cls-1" d="M721.78,21.96c0-12.42,10.12-21.96,25.97-21.96s25.98,8.79,25.98,21.2c0,13.18-10.12,22.73-25.98,22.73s-25.97-9.55-25.97-21.96ZM726.18,52.33h43.17v104.47h-43.17V52.33Z"/>
      <path class="cls-1" d="M903.8,97.22v59.59h-43.17v-52.14c0-12.99-4.97-17.95-12.8-17.95-8.79,0-16.23,5.54-16.23,21.01v49.09h-43.17V52.33h41.06v10.31c8.21-8.21,19.29-12.22,31.51-12.22,24.06,0,42.78,13.94,42.78,46.79Z"/>
      <path class="cls-1" d="M999.49,153.18c-6.68,3.82-16.43,5.54-26.55,5.54-28.84,0-45.65-13.56-45.65-42.4v-26.74h-14.32v-31.51h14.32v-29.22h43.17v29.22h21.39v31.51h-21.39v26.36c0,6.49,3.82,10.12,8.98,10.12,3.44,0,6.88-.96,9.74-2.87l10.31,29.99Z"/>
    </g>
  </g>
</svg>